HIERARCHY
ROOT Bip001_Pelvis
{
  OFFSET 33.2923 95.8902 -28.781
  CHANNELS 6 Xposition Yposition Zposition Zrotation Xrotation Yrotation
  JOINT Bip001_Spine
  {
    OFFSET 1.4188e-005 10.2191 -0.0116013
    CHANNELS 3 Zrotation Xrotation Yrotation
    JOINT Bip001_L_Thigh
    {
      OFFSET 11.0458 -10.2192 0.0116197
      CHANNELS 3 Zrotation Xrotation Yrotation
      JOINT Bip001_L_Calf
      {
        OFFSET -0.707118 -44.0221 0.360014
        CHANNELS 3 Zrotation Xrotation Yrotation
        JOINT Bip001_L_Foot
        {
          OFFSET -0.651902 -40.5938 -3.56146
          CHANNELS 3 Zrotation Xrotation Yrotation
          JOINT Bip001_L_Toe0
          {
            OFFSET 0.0530839 -10.2181 13.1504
            CHANNELS 3 Zrotation Xrotation Yrotation
            End Site
            {
              OFFSET -1.02532e-005 0 7.55606
            }
          }
        }
      }
    }
    JOINT Bip001_R_Thigh
    {
      OFFSET -11.0458 -10.2191 0.0115893
      CHANNELS 3 Zrotation Xrotation Yrotation
      JOINT Bip001_R_Calf
      {
        OFFSET 0.706994 -44.0221 0.35984
        CHANNELS 3 Zrotation Xrotation Yrotation
        JOINT Bip001_R_Foot
        {
          OFFSET 0.651786 -40.5938 -3.5613
          CHANNELS 3 Zrotation Xrotation Yrotation
          JOINT Bip001_R_Toe0
          {
            OFFSET -0.0531479 -10.2181 13.1504
            CHANNELS 3 Zrotation Xrotation Yrotation
            End Site
            {
              OFFSET -1.02894e-005 0 7.55606
            }
          }
        }
      }
    }
    JOINT Bip001_Spine1
    {
      OFFSET 1.87041e-005 14.5736 1.08638
      CHANNELS 3 Zrotation Xrotation Yrotation
      JOINT Bip001_Spine2
      {
        OFFSET 2.24614e-005 14.5058 -1.69078
        CHANNELS 3 Zrotation Xrotation Yrotation
        JOINT Bip001_Neck
        {
          OFFSET 2.20278e-005 15.3945 -0.489414
          CHANNELS 3 Zrotation Xrotation Yrotation
          JOINT Bip001_L_Clavicle
          {
            OFFSET 6.06036 -0.000579998 0.00836775
            CHANNELS 3 Zrotation Xrotation Yrotation
            JOINT Bip001_L_UpperArm
            {
              OFFSET 11.5509 -0.0600302 0.00193952
              CHANNELS 3 Zrotation Xrotation Yrotation
              JOINT Bip001_L_Forearm
              {
                OFFSET 25.9523 0.0806089 -2.15551
                CHANNELS 3 Zrotation Xrotation Yrotation
                JOINT Bip001_L_Hand
                {
                  OFFSET 32.2476 0.153767 1.63968
                  CHANNELS 3 Zrotation Xrotation Yrotation
                  JOINT Bip001_L_Finger0
                  {
                    OFFSET 6.04639 -2.20976 5.90322
                    CHANNELS 3 Zrotation Xrotation Yrotation
                    End Site
                    {
                      OFFSET 4.22376 -1.43895 0.606486
                    }
                  }
                  JOINT Bip001_L_Finger1
                  {
                    OFFSET 11.0826 -0.704819 -0.198153
                    CHANNELS 3 Zrotation Xrotation Yrotation
                    End Site
                    {
                      OFFSET 6.20028 -0.397518 -0.0787166
                    }
                  }
                }
              }
            }
          }
          JOINT Bip001_R_Clavicle
          {
            OFFSET -6.06036 -0.000563197 0.00835105
            CHANNELS 3 Zrotation Xrotation Yrotation
            JOINT Bip001_R_UpperArm
            {
              OFFSET -11.5509 -0.0599978 0.00190698
              CHANNELS 3 Zrotation Xrotation Yrotation
              JOINT Bip001_R_Forearm
              {
                OFFSET -25.9523 0.080682 -2.1559
                CHANNELS 3 Zrotation Xrotation Yrotation
                JOINT Bip001_R_Hand
                {
                  OFFSET -32.2476 0.153858 1.63991
                  CHANNELS 3 Zrotation Xrotation Yrotation
                  JOINT Bip001_R_Finger0
                  {
                    OFFSET -6.04641 -2.20974 5.90321
                    CHANNELS 3 Zrotation Xrotation Yrotation
                    End Site
                    {
                      OFFSET -4.22376 -1.43894 0.606474
                    }
                  }
                  JOINT Bip001_R_Finger1
                  {
                    OFFSET -11.0826 -0.704789 -0.198184
                    CHANNELS 3 Zrotation Xrotation Yrotation
                    End Site
                    {
                      OFFSET -6.20028 -0.397501 -0.0787338
                    }
                  }
                }
              }
            }
          }
          JOINT Bip001_Head
          {
            OFFSET 1.09673e-005 11.2744 2.05948
            CHANNELS 3 Zrotation Xrotation Yrotation
            End Site
            {
              OFFSET 2.89576e-005 20.8808 -2.77728e-005
            }
          }
        }
      }
    }
  }
}
MOTION
Frames:	13
Frame Time:	0.04
30.9136 95.8007 -28.2484 -0.976245 -1.74414 6.45158 0.182675 2.40753 -0.32113 8.35979 -4.13793 7.63084 -1.69475 9.91701 -17.3821 4.32612 -3.00162 -0.0944345 -3.37293 -4.40488 5.24756 0.191608 -0.319985 -5.19751 -1.48687 8.41243 0.338913 -6.08219 -9.13076 1.1877 2.02482 -7.19883 2.48564 0.379859 4.81396 -0.650951 0.380897 4.81397 -0.650924 -4.69382 -1.01597 0.254981 -19.8597 2.075 0.251661 -50.4863 39.0652 -1.982 12.5043 1.69148 -24.2694 7.56782 1.59015 -1.93732 -1.59028e-015 3.18055e-015 -0 -6.36111e-015 6.36111e-015 -3.18055e-015 11.2421 7.60686 40.501 36.7047 -4.68182 63.2292 -52.6264 -2.84351 51.462 -38.7623 28.4951 24.2684 1.59028e-015 0 4.77083e-015 2.38542e-015 0 2.78299e-015 4.29708 11.9967 -2.44956 
30.7742 95.7925 -28.1995 -1.09327 -1.71895 6.90551 0.179875 2.38201 -0.329146 8.67783 -4.32676 7.50759 -1.86441 10.1056 -17.6976 4.38434 -3.03032 -0.086362 -3.39331 -4.42471 5.27595 0.528599 -0.183972 -5.43044 -1.6364 8.22147 0.321602 -6.16194 -9.04589 0.97048 2.03039 -7.21649 2.51269 0.373977 4.76293 -0.666659 0.37396 4.76294 -0.666652 -4.38604 -0.861568 0.0398801 -20.2462 1.77079 0.687014 -50.3233 38.6463 -1.99594 12.5197 2.02347 -24.1741 7.54414 1.55152 -2.08053 -3.18055e-015 3.18055e-015 -3.18055e-015 -1.59028e-015 -6.36111e-015 -3.18055e-015 10.7477 7.38474 40.5846 38.4114 -6.08274 64.9309 -48.6439 -6.55737 50.059 -36.6098 29.1507 24.823 0 0 -4.77083e-015 3.08974e-031 3.18056e-015 -5.56597e-015 4.21003 12.0357 -2.56 
30.7042 95.7865 -28.1512 -0.987693 -1.71974 7.30531 0.151359 2.34217 -0.359186 8.68262 -4.31806 7.41275 -1.88622 10.0524 -17.9047 4.18078 -3.06096 -0.0867044 -3.42972 -4.34546 5.2473 0.55438 -0.130109 -5.57532 -1.66884 8.36984 0.303338 -6.27149 -9.12847 0.762949 2.0493 -7.24859 2.49106 0.31783 4.68335 -0.725531 0.317825 4.68335 -0.725482 -3.3545 0.0452932 -0.376554 -21.1213 0.907693 0.301185 -50.773 37.7778 -1.45554 12.3767 2.25949 -24.134 7.66455 1.56517 -2.08537 -0 -6.36111e-015 -0 1.59028e-015 -3.18056e-015 -0 9.99726 6.40584 39.3446 38.5788 -6.3409 64.1053 -48.7724 -4.54622 55.3593 -36.1543 28.6237 24.0612 7.95139e-016 0 5.1684e-015 3.08974e-031 -6.36111e-015 2.78299e-015 2.85339 11.5823 -2.24237 
30.7217 95.789 -28.1181 -0.651256 -1.74988 7.3081 0.120081 2.3361 -0.405685 8.31144 -4.01075 7.45609 -1.79734 9.60734 -17.9123 3.91974 -2.93982 -0.087308 -3.46928 -4.26213 5.29627 0.193157 -0.322013 -5.23966 -1.55153 8.98952 0.240064 -6.38586 -9.37836 0.519807 2.04521 -7.23606 2.48726 0.256968 4.67127 -0.816447 0.257067 4.67128 -0.817299 -3.07598 0.528027 -0.484829 -21.4265 0.519795 -0.106382 -51.0685 37.5711 -1.12581 12.3083 2.48158 -23.9063 7.63294 1.61023 -2.07461 -4.77083e-015 -3.18055e-015 -0 -1.59028e-015 -3.18056e-015 -0 9.16304 5.60729 38.8123 34.5991 -6.07331 64.2375 -47.8346 -5.09453 54.2712 -38.5759 28.3868 22.5942 1.59028e-015 0 2.98177e-015 2.38542e-015 -6.36111e-015 2.38542e-015 2.06183 11.4423 -2.0157 
30.7713 95.8049 -28.0984 -0.43482 -1.85429 7.0305 0.081266 2.36583 -0.538267 8.01507 -3.6506 7.43668 -1.66725 9.24613 -17.5002 3.75605 -2.84284 -0.088188 -3.42738 -4.2119 5.249 -0.0911364 -0.443383 -4.77561 -1.41002 9.41355 0.257664 -6.39894 -9.50181 0.43498 2.01659 -7.14827 2.46087 0.185046 4.73058 -1.08128 0.185045 4.73066 -1.08128 -3.82965 0.527392 0.0493038 -20.5943 0.60083 -0.24246 -51.1824 38.7206 -0.95338 12.5594 2.21941 -23.8549 7.06523 1.49572 -1.91345 -1.76556e-031 -3.18055e-015 -3.18055e-015 -3.18055e-015 -3.18056e-015 -3.18055e-015 9.40742 5.34086 38.6309 31.9132 -6.42018 64.0776 -46.5375 -3.48285 53.6835 -41.2813 27.2748 22.8187 2.78298e-015 -3.18055e-015 -3.97569e-015 1.78906e-015 -6.36111e-015 3.97569e-016 2.52056 11.5891 -1.8738 
30.7651 95.8054 -28.1301 -0.526513 -1.75845 6.531 0.0836574 2.32799 -0.563227 8.01192 -3.68825 7.82447 -1.47679 9.38163 -17.3695 3.71407 -2.94453 -0.0893589 -3.43672 -4.24413 5.2541 -0.0984883 -0.62006 -4.09717 -1.24466 9.47589 0.240668 -6.43006 -9.45888 0.313074 1.98431 -7.06341 2.44326 0.192031 4.65512 -1.12904 0.191364 4.65509 -1.13019 -4.33784 0.606808 0.314413 -20.0734 0.561604 -0.339999 -51.1527 40.0625 -0.842379 12.7803 1.7466 -23.6757 6.63575 1.33544 -1.74475 1.59028e-015 -3.18055e-015 -3.18055e-015 -1.59028e-015 -6.36111e-015 -1.59028e-015 10.301 5.417 38.4995 31.288 -6.44467 62.9491 -46.0896 -4.05748 56.0539 -39.3751 27.0242 22.6356 4.17448e-015 3.18055e-015 1.68967e-015 4.87022e-015 0 3.27995e-015 3.10243 11.579 -1.95624 
30.7865 95.7984 -28.1792 -0.48316 -1.71712 5.92359 0.0902689 2.31796 -0.494184 7.84787 -3.58015 8.16181 -1.32379 9.3104 -17.2548 3.88182 -2.80268 -0.0907874 -3.40711 -4.37099 5.26811 -0.299915 -0.821133 -3.59034 -1.02986 9.64096 0.186706 -6.40469 -9.55079 0.398562 1.97805 -7.01042 2.39442 0.183143 4.63627 -0.993046 0.182101 4.63628 -0.993045 -4.33795 0.410015 0.178209 -20.2089 0.792772 -0.432976 -51.0315 39.9802 -0.895181 12.8499 2.07998 -23.567 6.88605 1.25131 -1.8688 -4.77083e-015 0 -3.18055e-015 -3.18055e-015 0 -3.18055e-015 11.4395 5.95338 37.9407 32.4569 -6.76257 62.1688 -44.0273 -4.60218 59.6696 -34.9058 27.3608 23.0719 3.97569e-016 0 -1.19271e-015 1.59028e-015 0 3.37934e-015 3.16173 11.7896 -2.11134 
30.7744 95.804 -28.2383 -0.468539 -1.67846 5.27361 0.0863338 2.32284 -0.396455 7.72288 -3.36771 7.76582 -1.35106 8.94385 -16.4874 4.33977 -2.3139 -0.123055 -3.24604 -4.75956 5.13585 -0.452658 -1.03722 -3.10766 -0.839412 9.77188 0.217156 -6.37315 -9.59291 0.45468 1.94525 -6.8876 2.33678 0.18925 4.64501 -0.797559 0.189122 4.64502 -0.797494 -4.07785 0.306413 -0.0779128 -20.4724 0.980087 -0.737012 -51.0436 38.7951 -1.05788 12.7028 2.63223 -23.6239 7.18804 1.18826 -2.02302 -4.77083e-015 -1.27222e-014 1.59028e-015 -3.18055e-015 -9.54167e-015 1.59028e-015 12.7642 6.57241 37.3052 35.7544 -7.40812 61.9748 -42.2334 -3.98727 64.3164 -28.5625 27.3997 23.7856 -1.32417e-031 -3.18055e-015 -2.38542e-015 7.95139e-016 -6.36111e-015 -3.57812e-015 3.05643 11.7584 -2.2439 
31.0693 95.8208 -28.2148 0.336922 -2.16205 5.09662 -0.0570735 2.45371 -0.474711 6.43315 -2.3091 7.28698 -0.714369 7.64345 -16.0778 4.62477 -1.43342 -0.171745 -3.10468 -4.97315 5.14589 -1.57616 -0.992879 -4.06882 -0.569505 10.6481 0.259581 -6.02023 -10.3031 1.52846 1.92048 -6.80077 2.29925 -0.0979233 4.90783 -0.945757 -0.0958279 4.90783 -0.946848 -4.129 0.140934 -0.0680201 -20.4269 1.16135 -0.761576 -51.0202 38.2304 -1.26207 12.7302 2.93489 -23.8273 7.20434 1.10986 -2.16854 1.59028e-015 0 -1.59028e-015 -0 -3.18056e-015 -0 14.7251 7.35872 36.7662 38.0767 -8.67522 59.8966 -38.4362 -4.05603 70.0132 -25.245 28.543 23.0682 -7.95139e-016 0 -7.95139e-016 2.38542e-015 3.18056e-015 2.38542e-015 3.16483 11.7041 -2.2763 
31.0926 95.8262 -28.2987 0.321503 -2.04145 4.68982 -0.0736266 2.45633 -0.525653 6.3522 -2.35563 7.034 -0.648176 7.53389 -15.4576 4.53472 -1.34844 -0.171698 -3.15136 -5.04146 5.17087 -1.68881 -1.21942 -3.74668 -0.387603 10.6465 0.332559 -6.01931 -10.3108 1.58612 1.90274 -6.72754 2.24836 -0.124582 4.91095 -1.04866 -0.124685 4.91092 -1.04914 -4.33317 0.0656264 0.0624898 -20.0936 1.25364 -0.796484 -51.046 38.5662 -1.25887 12.7208 2.38841 -24.2629 7.17106 1.15991 -2.13819 5.29669e-031 6.36111e-015 -4.77083e-015 1.05934e-030 9.54167e-015 -6.36111e-015 16.9702 8.02408 36.0154 38.8073 -9.10881 56.5416 -35.343 -3.61979 74.9527 -26.0658 29.1973 21.4263 4.77083e-015 0 -1.59028e-015 3.97569e-015 3.18056e-015 -7.95139e-016 3.74679 11.8555 -2.38537 
31.0889 95.8283 -28.3745 0.397704 -2.0168 4.28626 -0.0995581 2.48504 -0.521897 6.24122 -2.2422 7.08467 -0.607292 7.26614 -15.186 4.37742 -1.25805 -0.169291 -3.22128 -5.06091 5.21963 -1.82738 -1.41292 -3.33143 -0.246923 10.7485 0.245603 -5.98066 -10.3669 1.65446 1.88692 -6.64782 2.19565 -0.176957 4.97091 -1.04345 -0.176964 4.97091 -1.04103 -4.16231 0.013263 -0.0784655 -20.1909 1.3258 -0.891502 -50.9412 39.4205 -1.31822 12.7211 1.35153 -24.6127 7.16695 1.20185 -2.02327 9.54166e-015 -3.18055e-015 -1.59028e-015 6.36111e-015 -3.18056e-015 -4.77083e-015 19.1859 8.74848 35.0506 38.1514 -9.12666 52.1449 -32.7481 -2.93567 78.8089 -27.2188 29.7167 19.4487 6.36111e-015 3.18055e-015 3.18055e-015 4.77083e-015 6.36111e-015 -1.59028e-015 3.73623 11.8719 -2.48018 
31.0824 95.8287 -28.4307 0.482194 -2.0127 3.82875 -0.141644 2.51535 -0.515573 6.12863 -2.10401 7.61505 -0.528834 7.04733 -15.3116 4.71315 -0.99393 -0.195564 -3.09719 -5.1737 5.15314 -1.94629 -1.6124 -2.88938 -0.124702 10.8833 0.172815 -5.94443 -10.4444 1.70848 1.87998 -6.61113 2.16596 -0.261203 5.03188 -1.0269 -0.26113 5.03188 -1.02608 -3.87562 0.0219693 -0.228418 -20.3137 1.31377 -0.935964 -50.9644 39.7281 -1.39832 12.9307 1.26129 -24.7971 7.5379 1.05665 -2.15559 3.18055e-015 3.18055e-015 -3.18055e-015 -3.18055e-015 0 -0 21.4176 9.39839 33.9708 37.5935 -9.02133 46.7496 -32.3389 -0.92544 82.051 -28.1652 28.9067 19.0492 -8.82781e-032 -3.18055e-015 -1.59028e-015 -3.18055e-015 3.18056e-015 -1.59028e-015 3.68219 11.8751 -2.52116 
31.1234 95.8246 -28.4764 0.703202 -1.99747 3.41799 -0.208279 2.56316 -0.482573 5.85038 -1.87788 8.08099 -0.460836 6.5577 -15.5334 5.04698 -0.447376 -0.236849 -2.97259 -5.47117 5.02918 -2.20433 -1.91063 -2.44765 0.0020019 11.2242 0.082978 -5.93616 -10.6106 1.70951 1.87726 -6.61309 2.16438 -0.395258 5.12798 -0.958364 -0.395431 5.12798 -0.957805 -3.47563 -0.112799 -0.470059 -20.5467 1.39968 -0.837935 -50.8941 39.6858 -1.74144 13.1006 1.61999 -24.8319 7.54204 0.795428 -2.44451 6.36111e-015 3.18055e-015 -1.59028e-015 6.36111e-015 0 -3.18055e-015 23.3403 9.94257 32.3453 36.1154 -7.32978 39.9116 -33.6375 -0.0850871 84.2671 -26.0635 27.7926 17.8807 0 0 -6.36111e-015 -1.76556e-031 -3.18056e-015 -3.18055e-015 3.49318 11.9484 -2.57412 
